inDegrees=yes
name=ik_S53_A06_T02
DataType=double
version=3
OpenSimVersion=4.3-2021-08-27-4bc7ad9
endheader
time	pelvis_tilt	pelvis_list	pelvis_rotation	pelvis_tx	pelvis_ty	pelvis_tz	hip_flexion_r	hip_adduction_r	hip_rotation_r	knee_angle_r	knee_angle_r_beta	ankle_angle_r	subtalar_angle_r	mtp_angle_r	hip_flexion_l	hip_adduction_l	hip_rotation_l	knee_angle_l	knee_angle_l_beta	ankle_angle_l	subtalar_angle_l	mtp_angle_l	lumbar_extension	lumbar_bending	lumbar_rotation	arm_flex_r	arm_add_r	arm_rot_r	elbow_flex_r	pro_sup_r	wrist_flex_r	wrist_dev_r	arm_flex_l	arm_add_l	arm_rot_l	elbow_flex_l	pro_sup_l	wrist_flex_l	wrist_dev_l
27.96666666666636	-6.346765990541081	-3.500307431692032	29.01018452255844	0	0.9399999999999999	0	45.33147945071789	-10.00713876836593	-10.11418562490672	54.55490864586631	0.9521627789950883	0	0	0	45.33147945071789	-10.00713876836593	-10.11418562490672	54.55490864586631	0.9521627789950883	0	0	0	-4.938163433978048	-0.6928004338147356	4.815548495984469	34.83061775527174	-12.05740249195204	-2.451422091460589	52.51995240437125	144.1065370262012	0	0	69.04111748584174	-23.70813939695537	3.195117528624879	27.3567648307771	73.52052606171392	0	0
27.98333333333303	-6.319909555261383	-3.537390329362195	29.08609040535239	0	0.9399999999999999	0	45.33140753011079	-10.00713337477466	-10.11413023092601	54.55497352168173	0.9521639112916723	0	0	0	45.33140753011079	-10.00713337477466	-10.11413023092601	54.55497352168173	0.9521639112916723	0	0	0	-4.933509031069721	-0.7369973056862559	4.802256152208029	34.79441504174405	-12.01646831507722	-2.544270641804159	52.51674189669291	144.0866474117815	0	0	69.13026132586701	-23.82160646591179	3.195661925033215	26.88731452536329	73.7772908695071	0	0
27.99999999999969	-6.322255098145147	-3.56652061181701	29.20166654000601	0	0.9399999999999999	0	45.33126767948048	-10.00712284968325	-10.11402224975134	54.55509917237951	0.9521661043100559	0	0	0	45.33126767948048	-10.00712284968325	-10.11402224975134	54.55509917237951	0.9521661043100559	0	0	0	-4.95345320625403	-0.754398388904344	4.742096663562489	34.75197762614553	-12.02851937236539	-2.64529605386011	52.5795978532806	144.1418477505214	0	0	68.81486659334797	-24.14309333619023	2.474583868714133	27.00710947499231	74.40632379925174	0	0
28.01666666666636	-6.297809543185863	-3.598325466800008	29.29162574931138	0	0.9399999999999999	0	45.33119018053517	-10.00711704224574	-10.1139625743186	54.55516904169849	0.9521673237597184	0	0	0	45.33119018053517	-10.00711704224574	-10.1139625743186	54.55516904169849	0.9521673237597184	0	0	0	-4.949725085053686	-0.7903441053741439	4.707944423807707	34.72535595104908	-12.00021954921717	-2.730915362918921	52.57749496416126	144.1062275353814	0	0	68.68717128470735	-24.37272347184737	2.222049368460413	26.74047792476543	74.90057403094725	0	0
28.03333333333302	-6.293731417581369	-3.597172150485223	29.33765649365464	0	0.9399999999999999	0	45.33111400308933	-10.00711133842319	-10.11390394200059	54.55523773881762	0.9521685227506337	0	0	0	45.33111400308933	-10.00711133842319	-10.11390394200059	54.55523773881762	0.9521685227506337	0	0	0	-4.94895030910885	-0.7849820800243197	4.654180473288645	34.68328234965853	-12.00967954561517	-2.718500591093193	52.60188623915553	144.1297264769836	0	0	68.57977815539115	-24.57707595030665	1.924282353478336	26.40147459318017	75.32275238022355	0	0
28.04999999999969	-6.295799953871154	-3.611808579102386	29.39458988376502	0	0.9399999999999999	0	45.33102647387896	-10.00710477732065	-10.11383651576502	54.55531655029372	0.95216989827038	0	0	0	45.33102647387896	-10.00710477732065	-10.11383651576502	54.55531655029372	0.95216989827038	0	0	0	-4.959511951258342	-0.7941688773317784	4.63224011891202	34.6917591487108	-12.01956082306686	-2.770764919826986	52.59717516144924	144.1186955442707	0	0	68.50121745622904	-24.74020833743554	1.791868777817725	26.1186987985779	75.54181434357233	0	0
28.06666666666635	-6.285265887156664	-3.621334471135318	29.4473845994469	0	0.9399999999999999	0	45.33096481074076	-10.00710016531007	-10.11378908010317	54.55537216331806	0.9521708689007617	0	0	0	45.33096481074076	-10.00710016531007	-10.11378908010317	54.55537216331806	0.9521708689007617	0	0	0	-4.955550316893475	-0.8070206083803514	4.626335203683208	34.66374385548139	-12.0475623788654	-2.78034442809191	52.58478219732166	144.1760033653339	0	0	68.43466518332525	-24.83537345477204	1.767008787957004	25.83917354151401	75.58513158604811	0	0
28.08333333333302	-6.290464474357978	-3.648756318516261	29.48703386633828	0	0.9399999999999999	0	45.33095034582914	-10.00709910968373	-10.11377813184948	54.5553855094839	0.9521711018352982	0	0	0	45.33095034582914	-10.00709910968373	-10.11377813184948	54.5553855094839	0.9521711018352982	0	0	0	-4.973090414708146	-0.8294331079400198	4.634739626478487	34.67522593549669	-12.06824765931693	-2.803619659170263	52.59478721086458	144.1760857695559	0	0	68.39117357932818	-24.87060837289272	1.777093534521766	25.7874415569196	75.59926650454815	0	0
28.09999999999969	-6.26758554111592	-3.65414199830034	29.52064912656787	0	0.9399999999999999	0	45.33088449013488	-10.00709418352551	-10.113727461769	54.55544486637551	0.9521721378084905	0	0	0	45.33088449013488	-10.00709418352551	-10.113727461769	54.55544486637551	0.9521721378084905	0	0	0	-4.956953308954519	-0.8435187425944742	4.618194687545214	34.61017804247162	-12.03685859494586	-2.783943643493988	52.59575174694042	144.202906183553	0	0	68.36541106261355	-24.93309925077883	1.71302140692419	25.47252597896335	75.71529019663804	0	0
28.11666666666635	-6.267115534107467	-3.668689009833998	29.54182692022584	0	0.9399999999999999	0	45.33056719552371	-10.00707093765835	-10.1134864661009	54.55573128750534	0.9521771368002533	0	0	0	45.33056719552371	-10.00707093765835	-10.1134864661009	54.55573128750534	0.9521771368002533	0	0	0	-4.964809615856702	-0.8567968579757866	4.621725841829251	34.60734752899295	-12.04562073291715	-2.759160888551252	52.6157062246973	144.1799531654506	0	0	68.36754807307044	-24.92976509631216	1.729502403748875	25.51550372278721	75.72990272646078	0	0
28.13333333333302	-6.251045373402754	-3.699726860178517	29.57816330520396	0	0.9399999999999999	0	45.33049578293678	-10.00706561476357	-10.11343162393547	54.55579571899815	0.9521782613419448	0	0	0	45.33049578293678	-10.00706561476357	-10.11343162393547	54.55579571899815	0.9521782613419448	0	0	0	-4.967556970059431	-0.8892251721397019	4.598932503218935	34.61683721699785	-11.98275934899084	-2.782033427923924	52.58301665243435	144.2434209310164	0	0	68.40540032869846	-25.0024664249001	1.631709879854024	25.19202121454047	75.96172192529178	0	0
28.14999999999968	-6.231888430762607	-3.713634392287605	29.59440102917416	0	0.9399999999999999	0	45.33042518221527	-10.00706036979153	-10.11337751923503	54.5558595887041	0.952179376078606	0	0	0	45.33042518221527	-10.00706036979153	-10.11337751923503	54.5558595887041	0.952179376078606	0	0	0	-4.959653115646852	-0.9072995422106356	4.568846147973088	34.62039228484262	-11.94755567533792	-2.748307844439213	52.56754462820518	144.2082938095849	0	0	68.42566643760736	-25.08288163913722	1.620403774772566	24.90795635922959	76.13855398380436	0	0
28.16666666666635	-6.220634590110639	-3.731778423451573	29.61139526297358	0	0.9399999999999999	0	45.33035576206479	-10.00705521426469	-10.11332432694715	54.55592238594858	0.9521804720972834	0	0	0	45.33035576206479	-10.00705521426469	-10.11332432694715	54.55592238594858	0.9521804720972834	0	0	0	-4.960943804336007	-0.9247298545896879	4.53531316043611	34.62198562626345	-11.89716251431906	-2.750386704356571	52.56546003347546	144.2426062758899	0	0	68.40913969012999	-25.18122443291392	1.518468491004233	24.6822799588926	76.3725567629711	0	0
28.18333333333301	-6.222822466955662	-3.737912291095274	29.63325096652873	0	0.9399999999999999	0	45.33031312375277	-10.0070520704503	-10.11329180940841	54.55596120606349	0.9521811496361046	0	0	0	45.33031312375277	-10.0070520704503	-10.11329180940841	54.55596120606349	0.9521811496361046	0	0	0	-4.966709388349138	-0.9276242976543986	4.524362848924745	34.63386792878633	-11.90316407078105	-2.750637910517855	52.5568589829243	144.2356071697346	0	0	68.34703841322249	-25.22998443789896	1.486013578652749	24.51098166025428	76.49859613666518	0	0
28.19999999999968	-6.212603066592393	-3.732762076898559	29.62400085001981	0	0.9399999999999999	0	45.33023612300767	-10.00704639428469	-10.11323309017978	54.55603130086525	0.9521823730211837	0	0	0	45.33023612300767	-10.00704639428469	-10.11323309017978	54.55603130086525	0.9521823730211837	0	0	0	-4.958319435020003	-0.9225294949644183	4.477356543410306	34.632324804993	-11.87393444304477	-2.684861352154313	52.5582014871438	144.2637018346387	0	0	68.3379347273268	-25.28595430431027	1.410231779408881	24.14987649129496	76.76556051340417	0	0
28.21666666666635	-6.204407444996039	-3.755184615265532	29.62149687864154	0	0.9399999999999999	0	45.33014816858653	-10.00703990785617	-10.11316599360892	54.55611130494744	0.9521837693558329	0	0	0	45.33014816858653	-10.00703990785617	-10.11316599360892	54.55611130494744	0.9521837693558329	0	0	0	-4.964301223448011	-0.9426324053019285	4.44725640213694	34.66034922795541	-11.82883918159184	-2.702443738794734	52.53952399964609	144.2715979879227	0	0	68.19578035303914	-25.28566784084143	1.19575715246237	23.93827041673734	77.14141703474235	0	0
